<?xml version="1.0" encoding="us-ascii" standalone="no"?><svg xmlns="http://www.w3.org/2000/svg" xmlns:xlink="http://www.w3.org/1999/xlink" contentStyleType="text/css" height="459px" preserveAspectRatio="none" style="width:1262px;height:459px;background:#FFFFFF;" version="1.1" viewBox="0 0 1262 459" width="1262px" zoomAndPan="magnify"><defs/><g><rect fill="#F1F1F1" height="216.0938" rx="5" ry="5" style="stroke:#F1F1F1;stroke-width:1.5;" width="364" x="10" y="111.4531"/><text fill="#000000" font-family="sans-serif" font-size="14" font-weight="bold" lengthAdjust="spacing" textLength="105" x="15" y="127.9863">Message_Type</text><text fill="#000000" font-family="sans-serif" font-size="14" lengthAdjust="spacing" textLength="63" x="131" y="127.9863">node_info</text><line style="stroke:#000000;stroke-width:1.0;" x1="126" x2="126" y1="111.4531" y2="133.0625"/><line style="stroke:#000000;stroke-width:1.0;" x1="10" x2="374" y1="133.0625" y2="133.0625"/><text fill="#000000" font-family="sans-serif" font-size="14" font-weight="bold" lengthAdjust="spacing" textLength="59" x="15" y="149.5957">Node_ID</text><text fill="#000000" font-family="sans-serif" font-size="14" lengthAdjust="spacing" textLength="106" x="131" y="149.5957">Runtime Node ID</text><line style="stroke:#000000;stroke-width:1.0;" x1="126" x2="126" y1="133.0625" y2="154.6719"/><line style="stroke:#000000;stroke-width:1.0;" x1="10" x2="374" y1="154.6719" y2="154.6719"/><text fill="#000000" font-family="sans-serif" font-size="14" font-weight="bold" lengthAdjust="spacing" textLength="59" x="15" y="171.2051">Capacity</text><text fill="#000000" font-family="sans-serif" font-size="14" lengthAdjust="spacing" textLength="12" x="131" y="171.2051">&#160;&#160;&#160;</text><line style="stroke:#000000;stroke-width:1.0;" x1="126" x2="126" y1="154.6719" y2="176.2813"/><line style="stroke:#000000;stroke-width:1.0;" x1="10" x2="374" y1="176.2813" y2="176.2813"/><text fill="#000000" font-family="sans-serif" font-size="14" font-weight="bold" lengthAdjust="spacing" textLength="106" x="15" y="192.8145">Characteristics</text><text fill="#000000" font-family="sans-serif" font-size="14" lengthAdjust="spacing" textLength="12" x="131" y="192.8145">&#160;&#160;&#160;</text><line style="stroke:#000000;stroke-width:1.0;" x1="126" x2="126" y1="176.2813" y2="197.8906"/><line style="stroke:#000000;stroke-width:1.0;" x1="10" x2="374" y1="197.8906" y2="197.8906"/><text fill="#000000" font-family="sans-serif" font-size="14" font-weight="bold" lengthAdjust="spacing" textLength="58" x="15" y="214.4238">Network</text><text fill="#000000" font-family="sans-serif" font-size="14" lengthAdjust="spacing" textLength="12" x="131" y="214.4238">&#160;&#160;&#160;</text><line style="stroke:#000000;stroke-width:1.0;" x1="126" x2="126" y1="197.8906" y2="219.5"/><line style="stroke:#000000;stroke-width:1.0;" x1="10" x2="374" y1="219.5" y2="219.5"/><text fill="#000000" font-family="sans-serif" font-size="14" font-weight="bold" lengthAdjust="spacing" textLength="102" x="15" y="236.0332">Authentication</text><text fill="#000000" font-family="sans-serif" font-size="14" lengthAdjust="spacing" textLength="12" x="131" y="236.0332">&#160;&#160;&#160;</text><line style="stroke:#000000;stroke-width:1.0;" x1="126" x2="126" y1="219.5" y2="241.1094"/><line style="stroke:#000000;stroke-width:1.0;" x1="10" x2="374" y1="241.1094" y2="241.1094"/><text fill="#000000" font-family="sans-serif" font-size="14" font-weight="bold" lengthAdjust="spacing" textLength="97" x="15" y="257.6426">Health_Status</text><text fill="#000000" font-family="sans-serif" font-size="14" lengthAdjust="spacing" textLength="9" x="131" y="257.6426">S</text><line style="stroke:#000000;stroke-width:1.0;" x1="126" x2="126" y1="241.1094" y2="262.7188"/><line style="stroke:#000000;stroke-width:1.0;" x1="10" x2="374" y1="262.7188" y2="262.7188"/><text fill="#000000" font-family="sans-serif" font-size="14" font-weight="bold" lengthAdjust="spacing" textLength="63" x="15" y="279.252">Features</text><text fill="#000000" font-family="sans-serif" font-size="14" lengthAdjust="spacing" textLength="238" x="131" y="279.252">Liste an Features des Runtime Nodes</text><line style="stroke:#000000;stroke-width:1.0;" x1="126" x2="126" y1="262.7188" y2="284.3281"/><line style="stroke:#000000;stroke-width:1.0;" x1="10" x2="374" y1="284.3281" y2="284.3281"/><text fill="#000000" font-family="sans-serif" font-size="14" font-weight="bold" lengthAdjust="spacing" textLength="33" x="15" y="300.8613">Tags</text><text fill="#000000" font-family="sans-serif" font-size="14" lengthAdjust="spacing" textLength="213" x="131" y="300.8613">Liste an relevanten Anmerkungen</text><line style="stroke:#000000;stroke-width:1.0;" x1="126" x2="126" y1="284.3281" y2="305.9375"/><line style="stroke:#000000;stroke-width:1.0;" x1="10" x2="374" y1="305.9375" y2="305.9375"/><text fill="#000000" font-family="sans-serif" font-size="14" font-weight="bold" lengthAdjust="spacing" textLength="77" x="15" y="322.4707">Containers</text><text fill="#000000" font-family="sans-serif" font-size="14" lengthAdjust="spacing" textLength="12" x="131" y="322.4707">&#160;&#160;&#160;</text><line style="stroke:#000000;stroke-width:1.0;" x1="126" x2="126" y1="305.9375" y2="327.5469"/><rect fill="none" height="216.0938" rx="5" ry="5" style="stroke:#000000;stroke-width:1.5;" width="364" x="10" y="111.4531"/><rect fill="#F1F1F1" height="64.8281" rx="5" ry="5" style="stroke:#F1F1F1;stroke-width:1.5;" width="359" x="453" y="10"/><text fill="#000000" font-family="sans-serif" font-size="14" font-weight="bold" lengthAdjust="spacing" textLength="29" x="458" y="26.5332">CPU</text><text fill="#000000" font-family="sans-serif" font-size="14" lengthAdjust="spacing" textLength="130" x="553" y="26.5332">CPU Rechenleistung</text><line style="stroke:#000000;stroke-width:1.0;" x1="548" x2="548" y1="10" y2="31.6094"/><line style="stroke:#000000;stroke-width:1.0;" x1="453" x2="812" y1="31.6094" y2="31.6094"/><text fill="#000000" font-family="sans-serif" font-size="14" font-weight="bold" lengthAdjust="spacing" textLength="85" x="458" y="48.1426">Memory_GB</text><text fill="#000000" font-family="sans-serif" font-size="14" lengthAdjust="spacing" textLength="254" x="553" y="48.1426">Verf&#252;gbare Arbeitsspeichermenge in Gb</text><line style="stroke:#000000;stroke-width:1.0;" x1="548" x2="548" y1="31.6094" y2="53.2188"/><line style="stroke:#000000;stroke-width:1.0;" x1="453" x2="812" y1="53.2188" y2="53.2188"/><text fill="#000000" font-family="sans-serif" font-size="14" font-weight="bold" lengthAdjust="spacing" textLength="84" x="458" y="69.752">Storage_GB</text><text fill="#000000" font-family="sans-serif" font-size="14" lengthAdjust="spacing" textLength="225" x="553" y="69.752">Verf&#252;gbare Speicherkapazit&#228;t in Gb</text><line style="stroke:#000000;stroke-width:1.0;" x1="548" x2="548" y1="53.2188" y2="74.8281"/><rect fill="none" height="64.8281" rx="5" ry="5" style="stroke:#000000;stroke-width:1.5;" width="359" x="453" y="10"/><rect fill="#F1F1F1" height="64.8281" rx="5" ry="5" style="stroke:#F1F1F1;stroke-width:1.5;" width="443" x="411" y="93"/><text fill="#000000" font-family="sans-serif" font-size="14" font-weight="bold" lengthAdjust="spacing" textLength="19" x="416" y="109.5332">Os</text><text fill="#000000" font-family="sans-serif" font-size="14" lengthAdjust="spacing" textLength="115" x="546" y="109.5332">Betriebssystemtyp</text><line style="stroke:#000000;stroke-width:1.0;" x1="541" x2="541" y1="93" y2="114.6094"/><line style="stroke:#000000;stroke-width:1.0;" x1="411" x2="854" y1="114.6094" y2="114.6094"/><text fill="#000000" font-family="sans-serif" font-size="14" font-weight="bold" lengthAdjust="spacing" textLength="87" x="416" y="131.1426">Architecture</text><text fill="#000000" font-family="sans-serif" font-size="14" lengthAdjust="spacing" textLength="127" x="546" y="131.1426">Hardwarearchitektur</text><line style="stroke:#000000;stroke-width:1.0;" x1="541" x2="541" y1="114.6094" y2="136.2188"/><line style="stroke:#000000;stroke-width:1.0;" x1="411" x2="854" y1="136.2188" y2="136.2188"/><text fill="#000000" font-family="sans-serif" font-size="14" font-weight="bold" lengthAdjust="spacing" textLength="120" x="416" y="152.752">Runtime_Version</text><text fill="#000000" font-family="sans-serif" font-size="14" lengthAdjust="spacing" textLength="303" x="546" y="152.752">Version der Runtime Node Softwarekomponente</text><line style="stroke:#000000;stroke-width:1.0;" x1="541" x2="541" y1="136.2188" y2="157.8281"/><rect fill="none" height="64.8281" rx="5" ry="5" style="stroke:#000000;stroke-width:1.5;" width="443" x="411" y="93"/><rect fill="#F1F1F1" height="64.8281" rx="5" ry="5" style="stroke:#F1F1F1;stroke-width:1.5;" width="330" x="467.5" y="176"/><text fill="#000000" font-family="sans-serif" font-size="14" font-weight="bold" lengthAdjust="spacing" textLength="99" x="472.5" y="192.5332">Network_Type</text><text fill="#000000" font-family="sans-serif" font-size="14" lengthAdjust="spacing" textLength="110" x="581.5" y="192.5332">Netzwerkprotokoll</text><line style="stroke:#000000;stroke-width:1.0;" x1="576.5" x2="576.5" y1="176" y2="197.6094"/><line style="stroke:#000000;stroke-width:1.0;" x1="467.5" x2="797.5" y1="197.6094" y2="197.6094"/><text fill="#000000" font-family="sans-serif" font-size="14" font-weight="bold" lengthAdjust="spacing" textLength="82" x="472.5" y="214.1426">Latency_ms</text><text fill="#000000" font-family="sans-serif" font-size="14" lengthAdjust="spacing" textLength="211" x="581.5" y="214.1426">Latenz zum Runtime Master in ms</text><line style="stroke:#000000;stroke-width:1.0;" x1="576.5" x2="576.5" y1="197.6094" y2="219.2188"/><line style="stroke:#000000;stroke-width:1.0;" x1="467.5" x2="797.5" y1="219.2188" y2="219.2188"/><text fill="#000000" font-family="sans-serif" font-size="14" font-weight="bold" lengthAdjust="spacing" textLength="57" x="472.5" y="235.752">Position</text><text fill="#000000" font-family="sans-serif" font-size="14" lengthAdjust="spacing" textLength="126" x="581.5" y="235.752">GPS Positionsdaten</text><line style="stroke:#000000;stroke-width:1.0;" x1="576.5" x2="576.5" y1="219.2188" y2="240.8281"/><rect fill="none" height="64.8281" rx="5" ry="5" style="stroke:#000000;stroke-width:1.5;" width="330" x="467.5" y="176"/><rect fill="#F1F1F1" height="21.6094" rx="5" ry="5" style="stroke:#F1F1F1;stroke-width:1.5;" width="256" x="504.5" y="259.5"/><text fill="#000000" font-family="sans-serif" font-size="14" font-weight="bold" lengthAdjust="spacing" textLength="43" x="509.5" y="276.0332">Token</text><text fill="#000000" font-family="sans-serif" font-size="14" lengthAdjust="spacing" textLength="193" x="562.5" y="276.0332">Token f&#252;r die Authentifizierung</text><line style="stroke:#000000;stroke-width:1.0;" x1="557.5" x2="557.5" y1="259.5" y2="281.1094"/><rect fill="none" height="21.6094" rx="5" ry="5" style="stroke:#000000;stroke-width:1.5;" width="256" x="504.5" y="259.5"/><rect fill="#F1F1F1" height="64.8281" rx="5" ry="5" style="stroke:#F1F1F1;stroke-width:1.5;" width="22" x="621.5" y="300"/><text fill="#000000" font-family="sans-serif" font-size="14" lengthAdjust="spacing" textLength="12" x="626.5" y="316.5332">&#160;&#160;&#160;</text><line style="stroke:#000000;stroke-width:1.0;" x1="621.5" x2="643.5" y1="321.6094" y2="321.6094"/><text fill="#000000" font-family="sans-serif" font-size="14" lengthAdjust="spacing" textLength="12" x="626.5" y="338.1426">&#160;&#160;&#160;</text><line style="stroke:#000000;stroke-width:1.0;" x1="621.5" x2="643.5" y1="343.2188" y2="343.2188"/><text fill="#000000" font-family="sans-serif" font-size="14" lengthAdjust="spacing" textLength="12" x="626.5" y="359.752">&#160;&#160;&#160;</text><rect fill="none" height="64.8281" rx="5" ry="5" style="stroke:#000000;stroke-width:1.5;" width="22" x="621.5" y="300"/><rect fill="#F1F1F1" height="64.8281" rx="5" ry="5" style="stroke:#F1F1F1;stroke-width:1.5;" width="359" x="891" y="217"/><text fill="#000000" font-family="sans-serif" font-size="14" font-weight="bold" lengthAdjust="spacing" textLength="116" x="896" y="233.5332">Container_Name</text><text fill="#000000" font-family="sans-serif" font-size="14" lengthAdjust="spacing" textLength="97" x="1022" y="233.5332">Containername</text><line style="stroke:#000000;stroke-width:1.0;" x1="1017" x2="1017" y1="217" y2="238.6094"/><line style="stroke:#000000;stroke-width:1.0;" x1="891" x2="1250" y1="238.6094" y2="238.6094"/><text fill="#000000" font-family="sans-serif" font-size="14" font-weight="bold" lengthAdjust="spacing" textLength="44" x="896" y="255.1426">Status</text><text fill="#000000" font-family="sans-serif" font-size="14" lengthAdjust="spacing" textLength="107" x="1022" y="255.1426">stopped, running</text><line style="stroke:#000000;stroke-width:1.0;" x1="1017" x2="1017" y1="238.6094" y2="260.2188"/><line style="stroke:#000000;stroke-width:1.0;" x1="891" x2="1250" y1="260.2188" y2="260.2188"/><text fill="#000000" font-family="sans-serif" font-size="14" font-weight="bold" lengthAdjust="spacing" textLength="58" x="896" y="276.752">Binaries</text><text fill="#000000" font-family="sans-serif" font-size="14" lengthAdjust="spacing" textLength="223" x="1022" y="276.752">Liste an Applikationen im Container</text><line style="stroke:#000000;stroke-width:1.0;" x1="1017" x2="1017" y1="260.2188" y2="281.8281"/><rect fill="none" height="64.8281" rx="5" ry="5" style="stroke:#000000;stroke-width:1.5;" width="359" x="891" y="217"/><rect fill="#F1F1F1" height="64.8281" rx="5" ry="5" style="stroke:#F1F1F1;stroke-width:1.5;" width="359" x="891" y="300"/><text fill="#000000" font-family="sans-serif" font-size="14" font-weight="bold" lengthAdjust="spacing" textLength="116" x="896" y="316.5332">Container_Name</text><text fill="#000000" font-family="sans-serif" font-size="14" lengthAdjust="spacing" textLength="97" x="1022" y="316.5332">Containername</text><line style="stroke:#000000;stroke-width:1.0;" x1="1017" x2="1017" y1="300" y2="321.6094"/><line style="stroke:#000000;stroke-width:1.0;" x1="891" x2="1250" y1="321.6094" y2="321.6094"/><text fill="#000000" font-family="sans-serif" font-size="14" font-weight="bold" lengthAdjust="spacing" textLength="44" x="896" y="338.1426">Status</text><text fill="#000000" font-family="sans-serif" font-size="14" lengthAdjust="spacing" textLength="107" x="1022" y="338.1426">stopped, running</text><line style="stroke:#000000;stroke-width:1.0;" x1="1017" x2="1017" y1="321.6094" y2="343.2188"/><line style="stroke:#000000;stroke-width:1.0;" x1="891" x2="1250" y1="343.2188" y2="343.2188"/><text fill="#000000" font-family="sans-serif" font-size="14" font-weight="bold" lengthAdjust="spacing" textLength="58" x="896" y="359.752">Binaries</text><text fill="#000000" font-family="sans-serif" font-size="14" lengthAdjust="spacing" textLength="223" x="1022" y="359.752">Liste an Applikationen im Container</text><line style="stroke:#000000;stroke-width:1.0;" x1="1017" x2="1017" y1="343.2188" y2="364.8281"/><rect fill="none" height="64.8281" rx="5" ry="5" style="stroke:#000000;stroke-width:1.5;" width="359" x="891" y="300"/><rect fill="#F1F1F1" height="64.8281" rx="5" ry="5" style="stroke:#F1F1F1;stroke-width:1.5;" width="148" x="996.5" y="383"/><text fill="#000000" font-family="sans-serif" font-size="14" font-weight="bold" lengthAdjust="spacing" textLength="116" x="1001.5" y="399.5332">Container_Name</text><text fill="#000000" font-family="sans-serif" font-size="14" lengthAdjust="spacing" textLength="12" x="1127.5" y="399.5332">...</text><line style="stroke:#000000;stroke-width:1.0;" x1="1122.5" x2="1122.5" y1="383" y2="404.6094"/><line style="stroke:#000000;stroke-width:1.0;" x1="996.5" x2="1144.5" y1="404.6094" y2="404.6094"/><text fill="#000000" font-family="sans-serif" font-size="14" font-weight="bold" lengthAdjust="spacing" textLength="44" x="1001.5" y="421.1426">Status</text><text fill="#000000" font-family="sans-serif" font-size="14" lengthAdjust="spacing" textLength="12" x="1127.5" y="421.1426">...</text><line style="stroke:#000000;stroke-width:1.0;" x1="1122.5" x2="1122.5" y1="404.6094" y2="426.2188"/><line style="stroke:#000000;stroke-width:1.0;" x1="996.5" x2="1144.5" y1="426.2188" y2="426.2188"/><text fill="#000000" font-family="sans-serif" font-size="14" font-weight="bold" lengthAdjust="spacing" textLength="58" x="1001.5" y="442.752">Binaries</text><text fill="#000000" font-family="sans-serif" font-size="14" lengthAdjust="spacing" textLength="12" x="1127.5" y="442.752">...</text><line style="stroke:#000000;stroke-width:1.0;" x1="1122.5" x2="1122.5" y1="426.2188" y2="447.8281"/><rect fill="none" height="64.8281" rx="5" ry="5" style="stroke:#000000;stroke-width:1.5;" width="148" x="996.5" y="383"/><path d="M362,165.5 L375,165.5 C414.802,165.5 379.809,108.2249 411,83.5 C421.7079,75.0119 433.6211,68.0788 446.2097,62.434 " fill="none" style="stroke:#000000;stroke-width:1.0;stroke-dasharray:3.0,3.0;"/><path d="M447.4118,65.2579 L448.3276,61.5324 L445.0077,59.6101 L453.2695,59.4289 L447.4118,65.2579 " fill="#000000" style="stroke:#000000;stroke-width:1.0;"/><ellipse cx="362" cy="165.5" fill="#000000" rx="3" ry="3" style="stroke:#000000;stroke-width:1.0;"/><path d="M362,187.5 L375,187.5 C393.3033,187.5 393.7904,173.7323 411,167.5 C418.0917,164.9318 425.3712,162.512 432.7698,160.2329 " fill="none" style="stroke:#000000;stroke-width:1.0;stroke-dasharray:3.0,3.0;"/><path d="M433.6628,163.2072 L435.0005,159.5632 L431.8768,157.2586 L440.2054,158.0004 L433.6628,163.2072 " fill="#000000" style="stroke:#000000;stroke-width:1.0;"/><ellipse cx="362" cy="187.5" fill="#000000" rx="3" ry="3" style="stroke:#000000;stroke-width:1.0;"/><path d="M362,208.5 L375,208.5 C402.5442,208.5 431.749,208.5 460.2118,208.5 " fill="none" style="stroke:#000000;stroke-width:1.0;stroke-dasharray:3.0,3.0;"/><path d="M460.2118,211.5444 L462.495,208.5 L460.2118,205.4556 L467.8227,208.5 L460.2118,211.5444 " fill="#000000" style="stroke:#000000;stroke-width:1.0;"/><ellipse cx="362" cy="208.5" fill="#000000" rx="3" ry="3" style="stroke:#000000;stroke-width:1.0;"/><path d="M362,230.5 L375,230.5 C393.3033,230.5 393.507,245.1142 411,250.5 C438.2926,258.903 468.3089,264.1166 497.1832,267.2832 " fill="none" style="stroke:#000000;stroke-width:1.0;stroke-dasharray:3.0,3.0;"/><path d="M496.863,270.3675 L499.4965,267.5235 L497.5035,264.199 L504.8939,268.084 L496.863,270.3675 " fill="#000000" style="stroke:#000000;stroke-width:1.0;"/><ellipse cx="362" cy="230.5" fill="#000000" rx="3" ry="3" style="stroke:#000000;stroke-width:1.0;"/><path d="M632,310.5 L645,310.5 C733.2785,310.5 830.8347,297.4452 910.1917,283.4143 " fill="none" style="stroke:#000000;stroke-width:1.0;stroke-dasharray:3.0,3.0;"/><path d="M910.7359,286.4631 L912.4783,283.0061 L909.6475,280.3655 L917.8137,282.0538 L910.7359,286.4631 " fill="#000000" style="stroke:#000000;stroke-width:1.0;"/><ellipse cx="632" cy="310.5" fill="#000000" rx="3" ry="3" style="stroke:#000000;stroke-width:1.0;"/><path d="M632,332.5 L645,332.5 C723.2008,332.5 809.4955,332.5 883.7787,332.5 " fill="none" style="stroke:#000000;stroke-width:1.0;stroke-dasharray:3.0,3.0;"/><path d="M883.7787,335.544 L886.0617,332.5 L883.7787,329.456 L891.3888,332.5 L883.7787,335.544 " fill="#000000" style="stroke:#000000;stroke-width:1.0;"/><ellipse cx="632" cy="332.5" fill="#000000" rx="3" ry="3" style="stroke:#000000;stroke-width:1.0;"/><path d="M632,354.5 L645,354.5 C765.8363,354.5 904.0555,378.96 989.1894,396.9022 " fill="none" style="stroke:#000000;stroke-width:1.0;stroke-dasharray:3.0,3.0;"/><path d="M988.5471,399.9267 L991.4578,397.384 L989.8318,393.8777 L996.7508,398.5081 L988.5471,399.9267 " fill="#000000" style="stroke:#000000;stroke-width:1.0;"/><ellipse cx="632" cy="354.5" fill="#000000" rx="3" ry="3" style="stroke:#000000;stroke-width:1.0;"/><path d="M362,316.5 L375,316.5 C464.9197,316.5 572.1949,326.3775 614.0413,330.6108 " fill="none" style="stroke:#000000;stroke-width:1.0;stroke-dasharray:3.0,3.0;"/><path d="M613.7255,333.6868 L616.3483,330.8476 L614.357,327.5347 L621.7314,331.4003 L613.7255,333.6868 " fill="#000000" style="stroke:#000000;stroke-width:1.0;"/><ellipse cx="362" cy="316.5" fill="#000000" rx="3" ry="3" style="stroke:#000000;stroke-width:1.0;"/><!--SRC=[rLHDRnen4BtlhnZjAP5IH6ZI0wS0eQGHf2XBSgagP7O7SDcrL_Oi4KJyc_wCtlB7EjuF22NquzYzWCSpppFlFVlAaZ3qpMhbFNl0dpz0QyKCnwDLYduJVAKZ74irrVvPaN3d0f-ktTvzfaWc22u472epEY8LeQGLf-I1rz_pGQGe6JuuGFw1Umpdg6AKbZ8rAp4F2WQOQBCQzzgkx17DzEN7R28CGijCK9ArAKh6CGcg6O9Kq9iSWmf86pVn8LPGWYnueBMab-zK8Xq0RQhHvyA8aD1mzpAqRp7mUoQsNNrsnNuRoKYSMBkoX0cjqYD3RCjQ9fnBmf0oayjt8qpqnBE88hxW-9yWIbN7p8ILMfMakByGeO4zqGCz9GU_q4cg5If2_oXunT4TqfCsYtzmHrcnzIIlrqyiIseqwOMEusFIzWMX2bVZ92SpNwrXdINR8GQ2UJLELKuv0ZBKLb99H6yOGBMsaSCxxeLMHcnaje4eg_zst95UO7vQ_WVOZWOYoTOk0QToBT6uot7qx1iKCSt70GdAyjc3wd9-HE6yKH32BaKG2geW2spt1Av8yKTYjbzYCCQbOC4Lj5J2Od0_t7Lr3xGY8HNRffhxosxOtUxuJYIvejk8Se6T4Fvk0aiwJJ4w0vvSoRsNmMzB9VYUx7VOIjDOBdBokKcPmFQGWhVDsV_MKgrMUxkHNpPUd-ss2koltiQxGXNbhxqtZ5cyXq4VbkNTFgyrwesBslkJqJnZGqpW_18QzUP5lLc_X4vt16xxr3lf3VlB1bYTcH3PbfOVg4dc9ZhrRiLILFPfWbkTZ0Qd47ItdkggfJIQ_QB8ktqS54bmeob8DUN97oxUjIL1W8ORWyU1TurJaSN4fQ6EcEGcTDBpncN3wmiro_ZXRh9hlOxc4yog2TVTdm00]--></g></svg>